# xmcd
#
# Track frame offsets:
#	150
#	15432
#	33216
#	48273
#	63524
#	78501
#	95021
#	114800
#	127006
#	143193
#	159903
#	175117
#	193781
#	209273
#	222578
#	236845
#	256847
#	273134
#	286575
#	299925
#
# Disc length: 4162 seconds
#
# Revision: 0
# Processed by: cddbd v1.4PL0 Copyright (c) Steve Scherf et al.
# Submitted via: EasyCDDAExtractor 4.5.0.2
#
DISCID=23104014
DTITLE=Tião Carreiro e Pardinho - Modas de Viola - Volume 2
DYEAR=2000
DGENRE=Country
TTITLE0=Travessia do Araguaia
TTITLE1=Ultima Viagem
TTITLE2=Lobisomem
TTITLE3=Irmão do Ferreirinha
TTITLE4=Boi Soberano
TTITLE5=Derrota do Boi Palacio
TTITLE6=Gato de Três cores
TTITLE7=Derrota
TTITLE8=Fazenda Caioçara
TTITLE9=Ferreirinha
TTITLE10=Arreio de Prata
TTITLE11=Osvaldo Cintra
TTITLE12=Viola vermelha
TTITLE13=cabelos cor de prata
TTITLE14=um pouco de minha vida
TTITLE15=exemplo de humildade
TTITLE16=preto fugido
TTITLE17=rio preto de luto
TTITLE18=boi sete ouro
TTITLE19=a viola e o violeiro
EXTD=
EXTT0=
EXTT1=
EXTT2=
EXTT3=
EXTT4=
EXTT5=
EXTT6=
EXTT7=
EXTT8=
EXTT9=
EXTT10=
EXTT11=
EXTT12=
EXTT13=
EXTT14=
EXTT15=
EXTT16=
EXTT17=
EXTT18=
EXTT19=
PLAYORDER=
